<?xml version="1.0" encoding="UTF-8"?>
<svg xmlns="http://www.w3.org/2000/svg" xmlns:xlink="http://www.w3.org/1999/xlink" width="26px" height="30px" viewBox="0 0 26 30" version="1.1">
<g id="surface1">
<path style="fill:none;stroke-width:2.3;stroke-linecap:butt;stroke-linejoin:miter;stroke:rgb(40%,31.372549%,31.372549%);stroke-opacity:1;stroke-miterlimit:4;" d="M 78.647236 26.457031 C 78.280349 26.795573 78.113582 27.184896 78.146935 27.625 C 78.180288 28.048177 78.363732 28.14974 78.713942 27.895833 C 79.014123 27.675781 79.214243 27.33724 79.347656 26.880208 " transform="matrix(0.234234,0,0,0.230769,0,0)"/>
<path style="fill:none;stroke-width:2.3;stroke-linecap:butt;stroke-linejoin:miter;stroke:rgb(50.196078%,49.411765%,49.803922%);stroke-opacity:1;stroke-miterlimit:4;" d="M 68.074219 20.60026 L 69.591797 18.80599 C 69.808594 18.552083 69.758564 18.365885 69.441707 18.247396 C 68.707933 17.959635 68.174279 17.519531 67.840745 16.910156 " transform="matrix(0.234234,0,0,0.230769,0,0)"/>
<path style="fill:none;stroke-width:2.3;stroke-linecap:butt;stroke-linejoin:miter;stroke:rgb(40%,31.372549%,31.372549%);stroke-opacity:1;stroke-miterlimit:4;" d="M 67.840745 16.910156 C 67.673978 15.96224 67.223708 15.03125 66.506611 14.066406 C 66.30649 13.8125 66.00631 13.677083 65.689453 13.69401 C 65.372596 13.69401 65.072416 13.863281 64.905649 14.134115 L 61.386869 19.567708 C 61.120042 19.973958 61.019982 20.43099 61.070012 20.904948 L 62.03726 29.182292 C 62.120643 29.927083 62.354117 29.994792 62.754357 29.334635 L 68.074219 20.60026 " transform="matrix(0.234234,0,0,0.230769,0,0)"/>
<path style="fill:none;stroke-width:2.3;stroke-linecap:butt;stroke-linejoin:miter;stroke:rgb(90.196078%,80.784314%,81.176471%);stroke-opacity:1;stroke-miterlimit:4;" d="M 67.840745 16.910156 C 67.507212 18.39974 67.573918 19.61849 68.074219 20.60026 " transform="matrix(0.234234,0,0,0.230769,0,0)"/>
<path style="fill:none;stroke-width:2.3;stroke-linecap:butt;stroke-linejoin:miter;stroke:rgb(40%,31.372549%,31.372549%);stroke-opacity:1;stroke-miterlimit:4;" d="M 43.709585 16.791667 L 40.607722 22.411458 C 40.457632 22.699219 40.440956 22.986979 40.607722 23.27474 L 46.477915 34.260417 C 46.878155 35.005208 47.161659 34.954427 47.311749 34.141927 C 48.195613 29.707031 49.379657 25.204427 50.897236 20.634115 C 50.997296 20.278646 50.947266 19.957031 50.747145 19.652344 L 48.51247 16.588542 " transform="matrix(0.234234,0,0,0.230769,0,0)"/>
<path style="fill:none;stroke-width:2.3;stroke-linecap:butt;stroke-linejoin:miter;stroke:rgb(50.196078%,49.411765%,49.803922%);stroke-opacity:1;stroke-miterlimit:4;" d="M 48.51247 16.588542 C 46.778095 13.998698 44.89363 13.778646 43.709585 16.791667 " transform="matrix(0.234234,0,0,0.230769,0,0)"/>
<path style="fill:none;stroke-width:2.3;stroke-linecap:butt;stroke-linejoin:miter;stroke:rgb(90.196078%,80.784314%,81.176471%);stroke-opacity:1;stroke-miterlimit:4;" d="M 48.51247 16.588542 L 43.709585 16.791667 " transform="matrix(0.234234,0,0,0.230769,0,0)"/>
<path style="fill:none;stroke-width:2.3;stroke-linecap:butt;stroke-linejoin:miter;stroke:rgb(40%,31.372549%,31.372549%);stroke-opacity:1;stroke-miterlimit:4;" d="M 52.881761 23.410156 C 51.214093 28.742187 50.063401 33.532552 49.429688 37.747396 C 48.429087 44.484375 49.0628 51.678385 51.364183 59.295573 C 52.08128 61.665365 53.515475 62.579427 55.666767 62.03776 C 55.983624 61.953125 56.200421 61.766927 56.333834 61.496094 C 58.335036 57.535156 58.501803 52.643229 59.2189 48.259115 C 60.736478 39.067708 59.485727 29.063802 57.534555 19.973958 " transform="matrix(0.234234,0,0,0.230769,0,0)"/>
<path style="fill:none;stroke-width:2.3;stroke-linecap:butt;stroke-linejoin:miter;stroke:rgb(50.196078%,49.411765%,49.803922%);stroke-opacity:1;stroke-miterlimit:4;" d="M 57.534555 19.973958 C 57.517879 18.501302 57.184345 17.147135 56.533954 15.945312 C 56.483924 15.84375 56.367188 15.776042 56.250451 15.792969 C 56.150391 15.792969 56.050331 15.860677 56.0003 15.96224 L 52.881761 23.410156 " transform="matrix(0.234234,0,0,0.230769,0,0)"/>
<path style="fill:none;stroke-width:2.3;stroke-linecap:butt;stroke-linejoin:miter;stroke:rgb(90.196078%,80.784314%,81.176471%);stroke-opacity:1;stroke-miterlimit:4;" d="M 57.534555 19.973958 C 56.233774 22.22526 54.682843 23.359375 52.881761 23.410156 " transform="matrix(0.234234,0,0,0.230769,0,0)"/>
<path style="fill:none;stroke-width:2.3;stroke-linecap:butt;stroke-linejoin:miter;stroke:rgb(40%,31.372549%,31.372549%);stroke-opacity:1;stroke-miterlimit:4;" d="M 69.57512 23.03776 C 67.090294 26.101562 65.205829 29.520833 63.921725 33.278646 C 63.204627 35.445312 62.821064 37.832031 62.804387 40.438802 C 62.754357 46.701823 61.9372 52.643229 60.336238 58.263021 C 60.052734 59.261719 60.252855 59.363281 60.936599 58.584635 C 61.536959 57.873698 62.020583 57.111979 62.354117 56.316406 C 63.571514 53.320312 65.105769 50.628906 66.923528 48.242188 C 68.391076 46.329427 69.458383 44.636719 70.108774 43.130208 C 72.49354 37.628906 74.311298 31.433594 75.562049 24.578125 " transform="matrix(0.234234,0,0,0.230769,0,0)"/>
<path style="fill:none;stroke-width:2.3;stroke-linecap:butt;stroke-linejoin:miter;stroke:rgb(50.196078%,49.411765%,49.803922%);stroke-opacity:1;stroke-miterlimit:4;" d="M 75.562049 24.578125 C 76.095703 21.852865 76.079026 19.313802 75.478666 16.94401 C 75.411959 16.690104 75.211839 16.486979 74.945012 16.436198 C 74.694862 16.385417 74.428035 16.486979 74.277945 16.707031 L 69.57512 23.03776 " transform="matrix(0.234234,0,0,0.230769,0,0)"/>
<path style="fill:none;stroke-width:2.3;stroke-linecap:butt;stroke-linejoin:miter;stroke:rgb(90.196078%,80.784314%,81.176471%);stroke-opacity:1;stroke-miterlimit:4;" d="M 75.562049 24.578125 C 72.560246 25.559896 70.559044 25.052083 69.57512 23.03776 " transform="matrix(0.234234,0,0,0.230769,0,0)"/>
<path style="fill:none;stroke-width:2.3;stroke-linecap:butt;stroke-linejoin:miter;stroke:rgb(40%,31.372549%,31.372549%);stroke-opacity:1;stroke-miterlimit:4;" d="M 32.202674 29.723958 C 32.402794 40.726562 38.60652 49.579427 45.327224 57.924479 C 45.977614 58.736979 46.694712 59.447917 47.495192 60.057292 C 47.978816 60.429687 48.128906 60.328125 47.978816 59.735677 C 46.894832 55.707031 46.327825 51.322917 46.277794 46.583333 C 46.261118 44.061198 45.860877 41.589844 45.077073 39.186198 C 43.376052 33.938802 40.807843 29.13151 37.339093 24.747396 " transform="matrix(0.234234,0,0,0.230769,0,0)"/>
<path style="fill:none;stroke-width:2.3;stroke-linecap:butt;stroke-linejoin:miter;stroke:rgb(50.196078%,49.411765%,49.803922%);stroke-opacity:1;stroke-miterlimit:4;" d="M 37.339093 24.747396 C 36.638672 23.410156 35.788161 22.377604 34.754207 21.615885 C 34.43735 21.395833 34.23723 21.480469 34.153846 21.835938 L 32.202674 29.723958 " transform="matrix(0.234234,0,0,0.230769,0,0)"/>
<path style="fill:none;stroke-width:2.3;stroke-linecap:butt;stroke-linejoin:miter;stroke:rgb(90.196078%,80.784314%,81.176471%);stroke-opacity:1;stroke-miterlimit:4;" d="M 37.339093 24.747396 L 36.271785 29.402344 C 36.188401 29.723958 35.988281 29.876302 35.654748 29.876302 L 32.202674 29.723958 " transform="matrix(0.234234,0,0,0.230769,0,0)"/>
<path style="fill:none;stroke-width:2.3;stroke-linecap:butt;stroke-linejoin:miter;stroke:rgb(40%,31.372549%,31.372549%);stroke-opacity:1;stroke-miterlimit:4;" d="M 80.398287 29.046875 C 78.196965 31.416667 75.91226 34.125 75.095102 37.25651 C 74.094501 41.098958 72.476863 44.535156 70.225511 47.582031 C 67.774038 50.89974 65.922927 54.200521 64.672175 57.518229 C 64.321965 58.415365 63.621544 59.041667 62.954477 59.71875 C 61.953876 60.768229 62.103966 60.988281 63.438101 60.395833 C 67.940805 58.38151 71.492939 55.977865 74.077825 53.167969 " transform="matrix(0.234234,0,0,0.230769,0,0)"/>
<path style="fill:none;stroke-width:2.3;stroke-linecap:butt;stroke-linejoin:miter;stroke:rgb(50.196078%,49.411765%,49.803922%);stroke-opacity:1;stroke-miterlimit:4;" d="M 74.077825 53.167969 C 80.765174 46.02474 83.483474 37.66276 82.249399 28.082031 C 82.232722 27.91276 82.115986 27.794271 81.965895 27.74349 C 81.815805 27.692708 81.649038 27.726562 81.532302 27.845052 L 80.398287 29.046875 " transform="matrix(0.234234,0,0,0.230769,0,0)"/>
<path style="fill:none;stroke-width:2.3;stroke-linecap:butt;stroke-linejoin:miter;stroke:rgb(90.196078%,80.784314%,81.176471%);stroke-opacity:1;stroke-miterlimit:4;" d="M 74.077825 53.167969 C 73.577524 52.778646 73.744291 52.11849 74.594802 51.204427 C 77.196364 48.326823 78.630559 43.891927 79.78125 39.744792 C 80.815204 36.03776 81.015325 32.483073 80.398287 29.046875 " transform="matrix(0.234234,0,0,0.230769,0,0)"/>
<path style="fill:none;stroke-width:2.3;stroke-linecap:butt;stroke-linejoin:miter;stroke:rgb(50.196078%,49.411765%,49.803922%);stroke-opacity:1;stroke-miterlimit:4;" d="M 24.714844 36.867188 C 24.297927 41.623698 25.698768 45.957031 28.884014 49.867188 C 30.951923 52.372396 33.136569 54.386719 35.437951 55.876302 " transform="matrix(0.234234,0,0,0.230769,0,0)"/>
<path style="fill:none;stroke-width:2.3;stroke-linecap:butt;stroke-linejoin:miter;stroke:rgb(40%,31.372549%,31.372549%);stroke-opacity:1;stroke-miterlimit:4;" d="M 35.437951 55.876302 C 37.189002 57.6875 39.356971 58.923177 41.92518 59.549479 C 42.525541 59.701823 42.625601 59.532552 42.242037 59.041667 C 39.390325 55.402344 36.722055 51.492188 34.253906 47.361979 C 30.901893 41.759115 29.267578 36.020833 29.317608 30.147135 C 29.317608 29.571615 29.100811 29.029948 28.683894 28.640625 C 28.266977 28.251302 27.716647 28.065104 27.166316 28.082031 C 26.032302 28.14974 25.348558 28.708333 25.115084 29.723958 C 24.548077 32.296875 24.414663 34.683594 24.714844 36.867188 " transform="matrix(0.234234,0,0,0.230769,0,0)"/>
<path style="fill:none;stroke-width:2.3;stroke-linecap:butt;stroke-linejoin:miter;stroke:rgb(90.196078%,80.784314%,81.176471%);stroke-opacity:1;stroke-miterlimit:4;" d="M 35.437951 55.876302 C 34.620793 54.471354 33.053185 52.52474 30.735126 50.019531 C 27.916767 46.989583 25.898888 42.605469 24.714844 36.867188 " transform="matrix(0.234234,0,0,0.230769,0,0)"/>
<path style="fill:none;stroke-width:2.3;stroke-linecap:butt;stroke-linejoin:miter;stroke:rgb(40%,31.372549%,31.372549%);stroke-opacity:1;stroke-miterlimit:4;" d="M 65.40595 62.240885 C 64.371995 61.953125 63.771635 61.834635 63.588191 61.885417 C 61.670373 62.477865 61.703726 62.917969 63.704928 63.205729 C 64.605469 63.341146 65.872897 63.459635 67.507212 63.578125 " transform="matrix(0.234234,0,0,0.230769,0,0)"/>
<path style=" stroke:none;fill-rule:nonzero;fill:rgb(0%,0%,0%);fill-opacity:1;" d="M 18.421875 6.105469 C 18.335938 6.183594 18.296875 6.273438 18.304688 6.375 C 18.3125 6.472656 18.355469 6.496094 18.4375 6.4375 C 18.507812 6.386719 18.554688 6.308594 18.585938 6.203125 C 18.859375 6.132812 19.136719 5.976562 19.414062 5.730469 C 19.492188 5.660156 19.605469 5.640625 19.710938 5.671875 C 19.8125 5.707031 19.886719 5.792969 19.90625 5.898438 C 20.1875 7.359375 19.984375 8.867188 19.289062 10.230469 C 18.550781 11.6875 17.761719 12.753906 16.320312 13.628906 C 16.046875 13.796875 16.066406 13.898438 16.390625 13.941406 C 18.589844 14.222656 20.679688 15.003906 22.65625 16.289062 C 23.21875 16.652344 23.699219 17.160156 24.082031 17.703125 C 24.128906 17.765625 24.144531 17.84375 24.125 17.917969 C 24.109375 17.996094 24.058594 18.058594 23.988281 18.09375 C 23.691406 18.25 23.363281 18.34375 23.007812 18.375 C 21.019531 18.550781 19.085938 18.375 17.207031 17.851562 C 15.707031 17.433594 14.328125 16.558594 13.074219 15.226562 C 13.039062 15.191406 12.996094 15.171875 12.949219 15.175781 C 12.902344 15.175781 12.859375 15.199219 12.828125 15.234375 C 12.765625 15.308594 12.742188 15.402344 12.765625 15.503906 C 12.804688 15.683594 12.894531 15.835938 13.039062 15.957031 C 14.511719 17.175781 15.769531 18.679688 16.8125 20.46875 C 17.414062 21.5 17.722656 22.652344 18.164062 23.75 C 18.285156 24.050781 18.445312 24.324219 18.644531 24.566406 C 18.941406 24.929688 18.957031 25.457031 18.441406 25.640625 C 18 25.796875 17.460938 25.421875 17.105469 25.1875 C 15.109375 23.871094 13.757812 22.136719 13.050781 19.980469 C 12.8125 19.253906 12.6875 19.273438 12.679688 20.039062 C 12.648438 23.367188 12.855469 26.636719 13.304688 29.84375 C 13.3125 29.886719 13.292969 29.910156 13.246094 29.914062 L 12.691406 29.914062 C 12.640625 29.914062 12.613281 29.886719 12.609375 29.839844 C 12.210938 26.972656 12.023438 24.160156 12.050781 21.398438 C 12.058594 20.511719 12.0625 19.652344 12.058594 18.820312 C 12.058594 18.605469 11.996094 18.585938 11.867188 18.757812 C 11.8125 18.828125 11.777344 18.910156 11.761719 19 C 11.746094 19.109375 11.714844 19.226562 11.675781 19.34375 C 11.121094 20.996094 10.5625 22.625 10.007812 24.230469 C 9.8125 24.78125 9.398438 25.828125 8.785156 26.019531 C 8.183594 26.203125 7.722656 25.640625 7.714844 25.089844 C 7.707031 24.511719 7.777344 23.90625 7.925781 23.28125 C 8.039062 22.8125 8.207031 22.207031 8.433594 21.472656 C 9.066406 19.417969 10.015625 17.5 11.289062 15.71875 C 11.3125 15.6875 11.308594 15.664062 11.277344 15.640625 L 11.222656 15.601562 C 11.210938 15.59375 11.199219 15.59375 11.191406 15.609375 C 10.960938 15.933594 10.792969 16.144531 10.683594 16.242188 C 8.933594 17.820312 7.109375 19.316406 5.210938 20.730469 C 3.898438 21.707031 3.167969 22.300781 2.015625 22.769531 C 1.695312 22.902344 1.589844 22.804688 1.695312 22.480469 C 1.765625 22.261719 1.746094 22.046875 1.835938 21.835938 C 3.421875 18.230469 6.203125 15.917969 10.175781 14.902344 C 10.273438 14.875 10.355469 14.832031 10.421875 14.765625 C 10.445312 14.746094 10.457031 14.714844 10.449219 14.6875 C 10.441406 14.65625 10.421875 14.632812 10.394531 14.621094 C 8.339844 13.859375 6.410156 12.632812 5.421875 10.722656 C 4.933594 9.773438 4.855469 8.640625 5.191406 7.3125 C 5.285156 6.960938 5.492188 6.71875 5.644531 6.398438 C 5.835938 5.984375 6.382812 5.859375 6.796875 5.96875 C 6.914062 6 7.039062 5.9375 7.085938 5.824219 C 7.28125 5.347656 7.515625 4.449219 8.070312 4.300781 C 8.421875 4.210938 8.710938 4.519531 9.015625 4.664062 C 9.097656 4.703125 9.195312 4.671875 9.242188 4.597656 C 9.484375 4.1875 9.75 3.78125 10.03125 3.382812 C 10.46875 2.761719 11.304688 2.628906 11.789062 3.265625 C 11.90625 3.421875 12.039062 3.570312 12.179688 3.714844 C 12.21875 3.75 12.269531 3.769531 12.324219 3.761719 C 12.375 3.753906 12.421875 3.722656 12.445312 3.679688 C 12.722656 3.1875 13.253906 2.628906 13.808594 3.210938 C 13.917969 3.324219 13.992188 3.460938 14.03125 3.621094 C 14.046875 3.6875 14.101562 3.738281 14.167969 3.753906 C 14.234375 3.765625 14.304688 3.742188 14.347656 3.691406 C 14.632812 3.34375 14.765625 2.902344 15.195312 2.695312 C 16.015625 2.296875 16.324219 3.082031 16.644531 3.660156 C 16.679688 3.726562 16.746094 3.769531 16.820312 3.777344 C 16.894531 3.785156 16.96875 3.757812 17.015625 3.703125 C 17.25 3.453125 17.515625 3.296875 17.8125 3.226562 C 17.921875 3.203125 18.035156 3.234375 18.117188 3.3125 C 18.324219 3.515625 18.4375 3.796875 18.453125 4.152344 C 18.492188 4.96875 18.480469 5.621094 18.421875 6.105469 Z M 15.945312 4.753906 L 16.300781 4.339844 C 16.351562 4.28125 16.339844 4.238281 16.265625 4.210938 C 16.09375 4.144531 15.96875 4.042969 15.890625 3.902344 C 15.851562 3.683594 15.746094 3.46875 15.578125 3.246094 C 15.53125 3.1875 15.460938 3.15625 15.386719 3.160156 C 15.3125 3.160156 15.242188 3.199219 15.203125 3.261719 L 14.378906 4.515625 C 14.316406 4.609375 14.292969 4.714844 14.304688 4.824219 L 14.53125 6.734375 C 14.550781 6.90625 14.605469 6.921875 14.699219 6.769531 Z M 10.238281 3.875 L 9.511719 5.171875 C 9.476562 5.238281 9.472656 5.304688 9.511719 5.371094 L 10.886719 7.90625 C 10.980469 8.078125 11.046875 8.066406 11.082031 7.878906 C 11.289062 6.855469 11.566406 5.816406 11.921875 4.761719 C 11.945312 4.679688 11.933594 4.605469 11.886719 4.535156 L 11.363281 3.828125 C 10.957031 3.230469 10.515625 3.179688 10.238281 3.875 Z M 12.386719 5.402344 C 11.996094 6.632812 11.726562 7.738281 11.578125 8.710938 C 11.34375 10.265625 11.492188 11.925781 12.03125 13.683594 C 12.199219 14.230469 12.535156 14.441406 13.039062 14.316406 C 13.113281 14.296875 13.164062 14.253906 13.195312 14.191406 C 13.664062 13.277344 13.703125 12.148438 13.871094 11.136719 C 14.226562 9.015625 13.933594 6.707031 13.476562 4.609375 C 13.472656 4.269531 13.394531 3.957031 13.242188 3.679688 C 13.230469 3.65625 13.203125 3.640625 13.175781 3.644531 C 13.152344 3.644531 13.128906 3.660156 13.117188 3.683594 Z M 16.296875 5.316406 C 15.714844 6.023438 15.273438 6.8125 14.972656 7.679688 C 14.804688 8.179688 14.714844 8.730469 14.710938 9.332031 C 14.699219 10.777344 14.507812 12.148438 14.132812 13.445312 C 14.066406 13.675781 14.113281 13.699219 14.273438 13.519531 C 14.414062 13.355469 14.527344 13.179688 14.605469 12.996094 C 14.890625 12.304688 15.25 11.683594 15.675781 11.132812 C 16.019531 10.691406 16.269531 10.300781 16.421875 9.953125 C 16.980469 8.683594 17.40625 7.253906 17.699219 5.671875 C 17.824219 5.042969 17.820312 4.457031 17.679688 3.910156 C 17.664062 3.851562 17.617188 3.804688 17.554688 3.792969 C 17.496094 3.78125 17.433594 3.804688 17.398438 3.855469 Z M 7.542969 6.859375 C 7.589844 9.398438 9.042969 11.441406 10.617188 13.367188 C 10.769531 13.554688 10.9375 13.71875 11.125 13.859375 C 11.238281 13.945312 11.273438 13.921875 11.238281 13.785156 C 10.984375 12.855469 10.851562 11.84375 10.839844 10.75 C 10.835938 10.167969 10.742188 9.597656 10.558594 9.042969 C 10.160156 7.832031 9.558594 6.722656 8.746094 5.710938 C 8.582031 5.402344 8.382812 5.164062 8.140625 4.988281 C 8.066406 4.9375 8.019531 4.957031 8 5.039062 Z M 18.832031 6.703125 C 18.316406 7.25 17.78125 7.875 17.589844 8.597656 C 17.355469 9.484375 16.976562 10.277344 16.449219 10.980469 C 15.875 11.746094 15.441406 12.507812 15.148438 13.273438 C 15.066406 13.480469 14.902344 13.625 14.746094 13.78125 C 14.511719 14.023438 14.546875 14.074219 14.859375 13.9375 C 15.914062 13.472656 16.746094 12.917969 17.351562 12.269531 C 18.917969 10.621094 19.554688 8.691406 19.265625 6.480469 C 19.261719 6.441406 19.234375 6.414062 19.199219 6.402344 C 19.164062 6.390625 19.125 6.398438 19.097656 6.425781 Z M 5.789062 8.507812 C 5.691406 9.605469 6.019531 10.605469 6.765625 11.507812 C 7.25 12.085938 7.761719 12.550781 8.300781 12.894531 C 8.710938 13.3125 9.21875 13.597656 9.820312 13.742188 C 9.960938 13.777344 9.984375 13.738281 9.894531 13.625 C 9.226562 12.785156 8.601562 11.882812 8.023438 10.929688 C 7.238281 9.636719 6.855469 8.3125 6.867188 6.957031 C 6.867188 6.824219 6.816406 6.699219 6.71875 6.609375 C 6.621094 6.519531 6.492188 6.476562 6.363281 6.480469 C 6.097656 6.496094 5.9375 6.625 5.882812 6.859375 C 5.75 7.453125 5.71875 8.003906 5.789062 8.507812 Z M 15.8125 14.671875 C 16.46875 14.800781 17.097656 15.015625 17.699219 15.320312 C 18.34375 15.644531 19.011719 15.796875 19.601562 16.148438 C 19.722656 16.222656 19.722656 16.292969 19.601562 16.367188 L 19.5 16.425781 C 19.355469 16.511719 19.179688 16.523438 19.027344 16.453125 C 17.410156 15.730469 15.894531 14.976562 14.109375 14.957031 C 13.828125 14.953125 13.789062 15.046875 13.996094 15.234375 C 14.472656 15.664062 14.988281 16.097656 15.546875 16.53125 C 16.023438 16.898438 16.550781 17.164062 17.128906 17.332031 C 17.980469 17.578125 18.796875 17.773438 19.574219 17.925781 C 20.722656 18.148438 21.882812 18.019531 23.035156 17.957031 C 23.113281 17.953125 23.179688 17.90625 23.210938 17.835938 C 23.238281 17.765625 23.222656 17.6875 23.171875 17.628906 C 22.363281 16.75 21.445312 16.09375 20.414062 15.664062 C 19.761719 15.390625 19.136719 15.136719 18.539062 14.902344 C 17.519531 14.503906 16.445312 14.324219 15.320312 14.363281 C 15.078125 14.296875 14.9375 14.269531 14.894531 14.28125 C 14.445312 14.417969 14.453125 14.519531 14.921875 14.585938 C 15.132812 14.617188 15.429688 14.644531 15.8125 14.671875 Z M 6.539062 18.308594 C 6.71875 18.027344 6.941406 17.789062 7.210938 17.59375 C 8 17.027344 8.832031 16.402344 9.714844 15.707031 C 10.179688 15.34375 10.128906 15.242188 9.558594 15.402344 C 6.78125 16.191406 4.746094 17.90625 3.183594 20.273438 C 2.921875 20.664062 2.347656 21.652344 2.453125 22.09375 C 2.464844 22.128906 2.488281 22.160156 2.523438 22.171875 C 2.558594 22.1875 2.597656 22.183594 2.628906 22.164062 C 3.183594 21.804688 3.703125 21.441406 4.191406 21.074219 C 6.425781 19.378906 8.65625 17.730469 10.589844 15.75 C 10.613281 15.726562 10.613281 15.703125 10.59375 15.679688 L 10.515625 15.597656 C 10.5 15.578125 10.480469 15.578125 10.460938 15.59375 C 9.632812 16.210938 8.796875 16.832031 7.953125 17.460938 C 7.621094 17.703125 7.308594 17.992188 7.011719 18.324219 C 6.914062 18.4375 6.789062 18.488281 6.632812 18.480469 C 6.5 18.476562 6.46875 18.421875 6.539062 18.308594 Z M 9.804688 19.382812 C 9.128906 20.992188 8.6875 22.652344 8.480469 24.363281 C 8.445312 24.636719 8.476562 24.90625 8.566406 25.167969 C 8.597656 25.257812 8.671875 25.324219 8.769531 25.339844 C 8.863281 25.355469 8.957031 25.320312 9.019531 25.25 C 9.367188 24.835938 9.394531 24.339844 9.554688 23.851562 C 9.957031 22.613281 10.378906 21.367188 10.816406 20.105469 C 10.890625 19.890625 10.890625 19.679688 10.972656 19.472656 C 11.421875 18.386719 11.699219 17.355469 11.816406 16.371094 C 11.859375 15.988281 11.757812 15.945312 11.511719 16.242188 C 10.691406 17.234375 10.359375 18.054688 9.804688 19.382812 Z M 16.121094 20.816406 C 15.539062 19.804688 14.960938 18.890625 14.382812 18.070312 C 14.054688 17.605469 13.648438 17.21875 13.160156 16.902344 C 13.125 16.878906 13.074219 16.878906 13.039062 16.902344 C 13.003906 16.925781 12.984375 16.96875 12.992188 17.011719 C 13.472656 20.019531 14.8125 23.066406 17.535156 24.675781 C 17.589844 24.707031 17.648438 24.722656 17.710938 24.714844 C 17.742188 24.710938 17.773438 24.695312 17.789062 24.664062 C 17.804688 24.636719 17.804688 24.601562 17.789062 24.574219 C 17.378906 23.777344 17.023438 22.964844 16.722656 22.136719 C 16.539062 21.628906 16.335938 21.1875 16.121094 20.816406 Z M 16.121094 20.816406 "/>
<path style=" stroke:none;fill-rule:nonzero;fill:rgb(80%,62.352941%,62.352941%);fill-opacity:1;" d="M 15.890625 3.902344 C 15.8125 4.246094 15.828125 4.527344 15.945312 4.753906 L 14.699219 6.769531 C 14.605469 6.921875 14.550781 6.90625 14.53125 6.734375 L 14.304688 4.824219 C 14.292969 4.714844 14.316406 4.609375 14.378906 4.515625 L 15.203125 3.261719 C 15.242188 3.199219 15.3125 3.160156 15.386719 3.160156 C 15.460938 3.15625 15.53125 3.1875 15.578125 3.246094 C 15.746094 3.46875 15.851562 3.683594 15.890625 3.902344 Z M 15.890625 3.902344 "/>
<path style=" stroke:none;fill-rule:nonzero;fill:rgb(100%,98.823529%,99.607843%);fill-opacity:1;" d="M 11.363281 3.828125 L 10.238281 3.875 C 10.515625 3.179688 10.957031 3.230469 11.363281 3.828125 Z M 11.363281 3.828125 "/>
<path style=" stroke:none;fill-rule:nonzero;fill:rgb(100%,98.823529%,99.607843%);fill-opacity:1;" d="M 13.476562 4.609375 C 13.171875 5.128906 12.808594 5.390625 12.386719 5.402344 L 13.117188 3.683594 C 13.128906 3.660156 13.152344 3.644531 13.175781 3.644531 C 13.203125 3.640625 13.230469 3.65625 13.242188 3.679688 C 13.394531 3.957031 13.472656 4.269531 13.476562 4.609375 Z M 13.476562 4.609375 "/>
<path style=" stroke:none;fill-rule:nonzero;fill:rgb(80%,62.352941%,62.352941%);fill-opacity:1;" d="M 11.363281 3.828125 L 11.886719 4.535156 C 11.933594 4.605469 11.945312 4.679688 11.921875 4.761719 C 11.566406 5.816406 11.289062 6.855469 11.082031 7.878906 C 11.046875 8.066406 10.980469 8.078125 10.886719 7.90625 L 9.511719 5.371094 C 9.472656 5.304688 9.476562 5.238281 9.511719 5.171875 L 10.238281 3.875 Z M 11.363281 3.828125 "/>
<path style=" stroke:none;fill-rule:nonzero;fill:rgb(100%,98.823529%,99.607843%);fill-opacity:1;" d="M 17.699219 5.671875 C 16.996094 5.898438 16.527344 5.78125 16.296875 5.316406 L 17.398438 3.855469 C 17.433594 3.804688 17.496094 3.78125 17.554688 3.792969 C 17.617188 3.804688 17.664062 3.851562 17.679688 3.910156 C 17.820312 4.457031 17.824219 5.042969 17.699219 5.671875 Z M 17.699219 5.671875 "/>
<path style=" stroke:none;fill-rule:nonzero;fill:rgb(100%,98.823529%,99.607843%);fill-opacity:1;" d="M 15.890625 3.902344 C 15.96875 4.042969 16.09375 4.144531 16.265625 4.210938 C 16.339844 4.238281 16.351562 4.28125 16.300781 4.339844 L 15.945312 4.753906 C 15.828125 4.527344 15.8125 4.246094 15.890625 3.902344 Z M 15.890625 3.902344 "/>
<path style=" stroke:none;fill-rule:nonzero;fill:rgb(80%,62.352941%,62.352941%);fill-opacity:1;" d="M 13.476562 4.609375 C 13.933594 6.707031 14.226562 9.015625 13.871094 11.136719 C 13.703125 12.148438 13.664062 13.277344 13.195312 14.191406 C 13.164062 14.253906 13.113281 14.296875 13.039062 14.316406 C 12.535156 14.441406 12.199219 14.230469 12.03125 13.683594 C 11.492188 11.925781 11.34375 10.265625 11.578125 8.710938 C 11.726562 7.738281 11.996094 6.632812 12.386719 5.402344 C 12.808594 5.390625 13.171875 5.128906 13.476562 4.609375 Z M 13.476562 4.609375 "/>
<path style=" stroke:none;fill-rule:nonzero;fill:rgb(100%,98.823529%,99.607843%);fill-opacity:1;" d="M 8.746094 5.710938 L 8.496094 6.785156 C 8.476562 6.859375 8.429688 6.894531 8.351562 6.894531 L 7.542969 6.859375 L 8 5.039062 C 8.019531 4.957031 8.066406 4.9375 8.140625 4.988281 C 8.382812 5.164062 8.582031 5.402344 8.746094 5.710938 Z M 8.746094 5.710938 "/>
<path style=" stroke:none;fill-rule:nonzero;fill:rgb(80%,62.352941%,62.352941%);fill-opacity:1;" d="M 16.296875 5.316406 C 16.527344 5.78125 16.996094 5.898438 17.699219 5.671875 C 17.40625 7.253906 16.980469 8.683594 16.421875 9.953125 C 16.269531 10.300781 16.019531 10.691406 15.675781 11.132812 C 15.25 11.683594 14.890625 12.304688 14.605469 12.996094 C 14.527344 13.179688 14.414062 13.355469 14.273438 13.519531 C 14.113281 13.699219 14.066406 13.675781 14.132812 13.445312 C 14.507812 12.148438 14.699219 10.777344 14.710938 9.332031 C 14.714844 8.730469 14.804688 8.179688 14.972656 7.679688 C 15.273438 6.8125 15.714844 6.023438 16.296875 5.316406 Z M 16.296875 5.316406 "/>
<path style=" stroke:none;fill-rule:nonzero;fill:rgb(80%,62.352941%,62.352941%);fill-opacity:1;" d="M 8.746094 5.710938 C 9.558594 6.722656 10.160156 7.832031 10.558594 9.042969 C 10.742188 9.597656 10.835938 10.167969 10.839844 10.75 C 10.851562 11.84375 10.984375 12.855469 11.238281 13.785156 C 11.273438 13.921875 11.238281 13.945312 11.125 13.859375 C 10.9375 13.71875 10.769531 13.554688 10.617188 13.367188 C 9.042969 11.441406 7.589844 9.398438 7.542969 6.859375 L 8.351562 6.894531 C 8.429688 6.894531 8.476562 6.859375 8.496094 6.785156 Z M 8.746094 5.710938 "/>
<path style=" stroke:none;fill-rule:nonzero;fill:rgb(80%,62.352941%,62.352941%);fill-opacity:1;" d="M 18.421875 6.105469 C 18.464844 6.148438 18.519531 6.183594 18.585938 6.203125 C 18.554688 6.308594 18.507812 6.386719 18.4375 6.4375 C 18.355469 6.496094 18.3125 6.472656 18.304688 6.375 C 18.296875 6.273438 18.335938 6.183594 18.421875 6.105469 Z M 18.421875 6.105469 "/>
<path style=" stroke:none;fill-rule:nonzero;fill:rgb(100%,98.823529%,99.607843%);fill-opacity:1;" d="M 17.351562 12.269531 C 17.234375 12.179688 17.273438 12.027344 17.472656 11.816406 C 18.082031 11.152344 18.417969 10.128906 18.6875 9.171875 C 18.929688 8.316406 18.976562 7.496094 18.832031 6.703125 L 19.097656 6.425781 C 19.125 6.398438 19.164062 6.390625 19.199219 6.402344 C 19.234375 6.414062 19.261719 6.441406 19.265625 6.480469 C 19.554688 8.691406 18.917969 10.621094 17.351562 12.269531 Z M 17.351562 12.269531 "/>
<path style=" stroke:none;fill-rule:nonzero;fill:rgb(80%,62.352941%,62.352941%);fill-opacity:1;" d="M 8.300781 12.894531 C 8.109375 12.570312 7.742188 12.121094 7.199219 11.542969 C 6.539062 10.84375 6.066406 9.832031 5.789062 8.507812 C 5.71875 8.003906 5.75 7.453125 5.882812 6.859375 C 5.9375 6.625 6.097656 6.496094 6.363281 6.480469 C 6.492188 6.476562 6.621094 6.519531 6.71875 6.609375 C 6.816406 6.699219 6.867188 6.824219 6.867188 6.957031 C 6.855469 8.3125 7.238281 9.636719 8.023438 10.929688 C 8.601562 11.882812 9.226562 12.785156 9.894531 13.625 C 9.984375 13.738281 9.960938 13.777344 9.820312 13.742188 C 9.21875 13.597656 8.710938 13.3125 8.300781 12.894531 Z M 8.300781 12.894531 "/>
<path style=" stroke:none;fill-rule:nonzero;fill:rgb(80%,62.352941%,62.352941%);fill-opacity:1;" d="M 18.832031 6.703125 C 18.976562 7.496094 18.929688 8.316406 18.6875 9.171875 C 18.417969 10.128906 18.082031 11.152344 17.472656 11.816406 C 17.273438 12.027344 17.234375 12.179688 17.351562 12.269531 C 16.746094 12.917969 15.914062 13.472656 14.859375 13.9375 C 14.546875 14.074219 14.511719 14.023438 14.746094 13.78125 C 14.902344 13.625 15.066406 13.480469 15.148438 13.273438 C 15.441406 12.507812 15.875 11.746094 16.449219 10.980469 C 16.976562 10.277344 17.355469 9.484375 17.589844 8.597656 C 17.78125 7.875 18.316406 7.25 18.832031 6.703125 Z M 18.832031 6.703125 "/>
<path style=" stroke:none;fill-rule:nonzero;fill:rgb(100%,98.823529%,99.607843%);fill-opacity:1;" d="M 5.789062 8.507812 C 6.066406 9.832031 6.539062 10.84375 7.199219 11.542969 C 7.742188 12.121094 8.109375 12.570312 8.300781 12.894531 C 7.761719 12.550781 7.25 12.085938 6.765625 11.507812 C 6.019531 10.605469 5.691406 9.605469 5.789062 8.507812 Z M 5.789062 8.507812 "/>
<path style=" stroke:none;fill-rule:nonzero;fill:rgb(80%,62.352941%,62.352941%);fill-opacity:1;" d="M 15.320312 14.363281 L 15.8125 14.671875 C 15.429688 14.644531 15.132812 14.617188 14.921875 14.585938 C 14.453125 14.519531 14.445312 14.417969 14.894531 14.28125 C 14.9375 14.269531 15.078125 14.296875 15.320312 14.363281 Z M 15.320312 14.363281 "/>
</g>
</svg>
