<?xml version="1.0" encoding="UTF-8" standalone="no"?>
<!DOCTYPE svg PUBLIC "-//W3C//DTD SVG 1.1//EN" "http://www.w3.org/Graphics/SVG/1.1/DTD/svg11.dtd">
<svg xmlns="http://www.w3.org/2000/svg" version="1.1" viewBox="0.00 0.00 111.00 130.00">
<g stroke-width="2.30" fill="none" stroke-linecap="butt">
<path stroke="#665050" vector-effect="non-scaling-stroke" d="
  M 78.64 26.45
  Q 78.09 26.97 78.14 27.62
  Q 78.19 28.27 78.72 27.89
  Q 79.16 27.57 79.34 26.88"
/>
<path stroke="#807e7f" vector-effect="non-scaling-stroke" d="
  M 68.07 20.60
  L 69.59 18.81
  Q 69.92 18.42 69.44 18.24
  Q 68.35 17.83 67.84 16.91"
/>
<path stroke="#665050" vector-effect="non-scaling-stroke" d="
  M 67.84 16.91
  Q 67.59 15.50 66.50 14.07
  A 0.98 0.97 42.8 0 0 64.91 14.13
  L 61.39 19.57
  Q 60.99 20.18 61.07 20.91
  L 62.03 29.18
  Q 62.16 30.31 62.75 29.34
  L 68.07 20.60"
/>
<path stroke="#e6cecf" vector-effect="non-scaling-stroke" d="
  M 67.84 16.91
  Q 67.33 19.14 68.07 20.60"
/>
<path stroke="#665050" vector-effect="non-scaling-stroke" d="
  M 43.71 16.80
  L 40.61 22.41
  Q 40.37 22.84 40.60 23.27
  L 46.48 34.26
  Q 47.07 35.37 47.32 34.14
  Q 48.63 27.49 50.89 20.63
  Q 51.06 20.10 50.74 19.66
  L 48.51 16.59"
/>
<path stroke="#807e7f" vector-effect="non-scaling-stroke" d="
  M 48.51 16.59
  C 46.78 14.00 44.89 13.78 43.71 16.80"
/>
<path stroke="#e6cecf" vector-effect="non-scaling-stroke" d="
  M 48.51 16.59
  L 43.71 16.80"
/>
<path stroke="#665050" vector-effect="non-scaling-stroke" d="
  M 52.88 23.41
  Q 50.38 31.42 49.43 37.75
  Q 47.92 47.86 51.36 59.29
  Q 52.43 62.86 55.67 62.03
  Q 56.13 61.91 56.34 61.49
  C 58.34 57.54 58.50 52.64 59.22 48.26
  C 60.73 39.07 59.49 29.06 57.54 19.98"
/>
<path stroke="#807e7f" vector-effect="non-scaling-stroke" d="
  M 57.54 19.98
  Q 57.51 17.75 56.53 15.95
  A 0.29 0.29 0.0 0 0 56.00 15.97
  L 52.88 23.41"
/>
<path stroke="#e6cecf" vector-effect="non-scaling-stroke" d="
  M 57.54 19.98
  Q 55.59 23.34 52.88 23.41"
/>
<path stroke="#665050" vector-effect="non-scaling-stroke" d="
  M 69.58 23.04
  Q 65.84 27.64 63.93 33.28
  Q 62.83 36.52 62.80 40.44
  Q 62.73 49.84 60.34 58.27
  Q 59.91 59.76 60.93 58.59
  Q 61.85 57.52 62.35 56.31
  Q 64.19 51.82 66.93 48.25
  Q 69.13 45.38 70.11 43.13
  Q 73.69 34.87 75.57 24.58"
/>
<path stroke="#807e7f" vector-effect="non-scaling-stroke" d="
  M 75.57 24.58
  Q 76.37 20.49 75.48 16.94
  A 0.68 0.68 0.0 0 0 74.27 16.70
  L 69.58 23.04"
/>
<path stroke="#e6cecf" vector-effect="non-scaling-stroke" d="
  M 75.57 24.58
  Q 71.06 26.06 69.58 23.04"
/>
<path stroke="#665050" vector-effect="non-scaling-stroke" d="
  M 32.21 29.73
  C 32.40 40.72 38.60 49.58 45.32 57.93
  Q 46.30 59.15 47.50 60.06
  Q 48.21 60.61 47.98 59.74
  Q 46.34 53.69 46.28 46.58
  Q 46.25 42.80 45.08 39.18
  Q 42.53 31.33 37.34 24.74"
/>
<path stroke="#807e7f" vector-effect="non-scaling-stroke" d="
  M 37.34 24.74
  Q 36.30 22.75 34.75 21.62
  Q 34.28 21.29 34.15 21.84
  L 32.21 29.73"
/>
<path stroke="#e6cecf" vector-effect="non-scaling-stroke" d="
  M 37.34 24.74
  L 36.27 29.40
  Q 36.16 29.89 35.65 29.87
  L 32.21 29.73"
/>
<path stroke="#665050" vector-effect="non-scaling-stroke" d="
  M 80.40 29.05
  C 78.20 31.42 75.91 34.13 75.10 37.25
  Q 73.60 43.02 70.23 47.58
  Q 66.55 52.55 64.67 57.51
  C 64.33 58.41 63.62 59.05 62.96 59.72
  Q 61.44 61.28 63.43 60.39
  Q 70.19 57.38 74.08 53.17"
/>
<path stroke="#807e7f" vector-effect="non-scaling-stroke" d="
  M 74.08 53.17
  Q 84.10 42.46 82.25 28.08
  A 0.41 0.41 0.0 0 0 81.54 27.85
  L 80.40 29.05"
/>
<path stroke="#e6cecf" vector-effect="non-scaling-stroke" d="
  M 74.08 53.17
  Q 73.32 52.59 74.59 51.20
  C 77.20 48.32 78.63 43.90 79.78 39.75
  Q 81.33 34.19 80.40 29.05"
/>
<path stroke="#807e7f" vector-effect="non-scaling-stroke" d="
  M 24.71 36.87
  Q 24.10 44.01 28.89 49.86
  Q 31.99 53.64 35.44 55.87"
/>
<path stroke="#665050" vector-effect="non-scaling-stroke" d="
  M 35.44 55.87
  Q 38.07 58.60 41.92 59.55
  Q 42.82 59.77 42.25 59.05
  Q 37.96 53.57 34.25 47.36
  Q 29.24 38.97 29.32 30.14
  A 2.04 2.04 0.0 0 0 27.16 28.09
  Q 25.46 28.19 25.12 29.72
  Q 24.26 33.58 24.71 36.87"
/>
<path stroke="#e6cecf" vector-effect="non-scaling-stroke" d="
  M 35.44 55.87
  Q 34.22 53.77 30.73 50.02
  Q 26.50 45.48 24.71 36.87"
/>
<path stroke="#665050" vector-effect="non-scaling-stroke" d="
  M 65.40 62.24
  Q 63.85 61.80 63.59 61.88
  Q 60.71 62.78 63.70 63.21
  Q 65.06 63.41 67.51 63.57"
/>
</g>
<path fill="#000000" d="
  M 78.64 26.45
  Q 78.09 26.97 78.14 27.62
  Q 78.19 28.27 78.72 27.89
  Q 79.16 27.57 79.34 26.88
  Q 81.10 26.42 82.88 24.84
  A 1.28 1.28 0.0 0 1 84.99 25.56
  C 86.19 31.89 85.31 38.43 82.35 44.33
  C 79.19 50.64 75.83 55.27 69.68 59.06
  Q 67.91 60.14 69.97 60.41
  Q 84.07 62.24 96.73 70.59
  C 99.12 72.16 101.17 74.36 102.82 76.71
  A 1.17 1.16 -31.5 0 1 102.41 78.41
  Q 100.51 79.43 98.23 79.63
  Q 85.49 80.76 73.46 77.36
  Q 63.85 74.65 55.81 65.98
  A 0.69 0.69 0.0 0 0 54.77 66.01
  Q 54.36 66.51 54.50 67.19
  Q 54.74 68.36 55.66 69.14
  Q 65.10 77.06 71.77 88.70
  C 74.34 93.17 75.66 98.16 77.55 102.91
  Q 78.33 104.88 79.60 106.45
  C 80.87 108.03 80.94 110.32 78.73 111.11
  C 76.84 111.78 74.54 110.16 73.03 109.15
  Q 60.24 100.59 55.72 86.59
  Q 54.19 81.85 54.14 86.83
  Q 53.92 108.48 56.80 129.33
  Q 56.84 129.61 56.55 129.62
  L 54.18 129.62
  Q 53.87 129.62 53.83 129.31
  Q 51.27 110.67 51.44 92.73
  Q 51.50 86.95 51.48 81.56
  Q 51.48 80.16 50.66 81.29
  Q 50.32 81.74 50.22 82.34
  Q 50.10 83.05 49.85 83.82
  Q 46.29 94.57 42.72 105.00
  C 41.90 107.38 40.13 111.93 37.51 112.75
  C 34.93 113.55 32.97 111.11 32.94 108.72
  Q 32.88 104.96 33.84 100.88
  Q 34.56 97.83 36.00 93.05
  Q 40.05 79.69 48.20 68.12
  Q 48.35 67.92 48.14 67.77
  L 47.92 67.61
  Q 47.84 67.55 47.78 67.64
  Q 46.31 69.74 45.61 70.38
  Q 34.41 80.65 22.25 89.83
  C 16.64 94.07 13.52 96.63 8.60 98.67
  Q 6.56 99.52 7.24 97.41
  C 7.54 96.47 7.45 95.54 7.84 94.63
  Q 17.99 71.18 43.45 64.57
  Q 44.06 64.41 44.50 63.99
  A 0.38 0.38 0.0 0 0 44.37 63.36
  C 35.60 60.06 27.37 54.75 23.15 46.46
  Q 20.02 40.31 22.17 31.69
  C 22.56 30.16 23.44 29.12 24.09 27.73
  C 24.92 25.94 27.25 25.39 29.02 25.86
  A 1.04 1.03 -71.7 0 0 30.25 25.24
  C 31.08 23.18 32.08 19.28 34.45 18.64
  C 35.96 18.24 37.19 19.59 38.49 20.21
  A 0.74 0.74 0.0 0 0 39.45 19.92
  Q 41.02 17.25 42.82 14.66
  C 44.70 11.96 48.26 11.40 50.33 14.15
  Q 51.09 15.16 52.00 16.09
  A 0.72 0.71 37.2 0 0 53.14 15.94
  C 54.31 13.82 56.59 11.39 58.96 13.92
  Q 59.65 14.65 59.90 15.69
  A 0.77 0.77 0.0 0 0 61.25 15.99
  C 62.47 14.49 63.04 12.58 64.87 11.68
  C 68.38 9.95 69.69 13.35 71.06 15.86
  A 0.98 0.98 0.0 0 0 72.65 16.05
  Q 74.14 14.43 76.05 13.98
  A 1.39 1.38 -28.8 0 1 77.34 14.35
  Q 78.67 15.68 78.78 18.00
  Q 79.02 23.30 78.64 26.45
  Z
  M 68.07 20.60
  L 69.59 18.81
  Q 69.92 18.42 69.44 18.24
  Q 68.35 17.83 67.84 16.91
  Q 67.59 15.50 66.50 14.07
  A 0.98 0.97 42.8 0 0 64.91 14.13
  L 61.39 19.57
  Q 60.99 20.18 61.07 20.91
  L 62.03 29.18
  Q 62.16 30.31 62.75 29.34
  L 68.07 20.60
  Z
  M 43.71 16.80
  L 40.61 22.41
  Q 40.37 22.84 40.60 23.27
  L 46.48 34.26
  Q 47.07 35.37 47.32 34.14
  Q 48.63 27.49 50.89 20.63
  Q 51.06 20.10 50.74 19.66
  L 48.51 16.59
  C 46.78 14.00 44.89 13.78 43.71 16.80
  Z
  M 52.88 23.41
  Q 50.38 31.42 49.43 37.75
  Q 47.92 47.86 51.36 59.29
  Q 52.43 62.86 55.67 62.03
  Q 56.13 61.91 56.34 61.49
  C 58.34 57.54 58.50 52.64 59.22 48.26
  C 60.73 39.07 59.49 29.06 57.54 19.98
  Q 57.51 17.75 56.53 15.95
  A 0.29 0.29 0.0 0 0 56.00 15.97
  L 52.88 23.41
  Z
  M 69.58 23.04
  Q 65.84 27.64 63.93 33.28
  Q 62.83 36.52 62.80 40.44
  Q 62.73 49.84 60.34 58.27
  Q 59.91 59.76 60.93 58.59
  Q 61.85 57.52 62.35 56.31
  Q 64.19 51.82 66.93 48.25
  Q 69.13 45.38 70.11 43.13
  Q 73.69 34.87 75.57 24.58
  Q 76.37 20.49 75.48 16.94
  A 0.68 0.68 0.0 0 0 74.27 16.70
  L 69.58 23.04
  Z
  M 32.21 29.73
  C 32.40 40.72 38.60 49.58 45.32 57.93
  Q 46.30 59.15 47.50 60.06
  Q 48.21 60.61 47.98 59.74
  Q 46.34 53.69 46.28 46.58
  Q 46.25 42.80 45.08 39.18
  Q 42.53 31.33 37.34 24.74
  Q 36.30 22.75 34.75 21.62
  Q 34.28 21.29 34.15 21.84
  L 32.21 29.73
  Z
  M 80.40 29.05
  C 78.20 31.42 75.91 34.13 75.10 37.25
  Q 73.60 43.02 70.23 47.58
  Q 66.55 52.55 64.67 57.51
  C 64.33 58.41 63.62 59.05 62.96 59.72
  Q 61.44 61.28 63.43 60.39
  Q 70.19 57.38 74.08 53.17
  Q 84.10 42.46 82.25 28.08
  A 0.41 0.41 0.0 0 0 81.54 27.85
  L 80.40 29.05
  Z
  M 24.71 36.87
  Q 24.10 44.01 28.89 49.86
  Q 31.99 53.64 35.44 55.87
  Q 38.07 58.60 41.92 59.55
  Q 42.82 59.77 42.25 59.05
  Q 37.96 53.57 34.25 47.36
  Q 29.24 38.97 29.32 30.14
  A 2.04 2.04 0.0 0 0 27.16 28.09
  Q 25.46 28.19 25.12 29.72
  Q 24.26 33.58 24.71 36.87
  Z
  M 67.51 63.57
  Q 71.70 64.41 75.56 66.39
  C 78.32 67.79 81.17 68.45 83.68 69.97
  Q 84.46 70.45 83.68 70.92
  L 83.25 71.18
  A 2.18 2.17 -48.3 0 1 81.23 71.30
  C 74.32 68.16 67.86 64.89 60.23 64.81
  Q 58.43 64.79 59.76 66.01
  Q 62.79 68.81 66.37 71.63
  Q 69.42 74.02 73.12 75.10
  Q 78.58 76.70 83.56 77.68
  C 88.47 78.65 93.43 78.09 98.35 77.82
  A 0.85 0.85 0.0 0 0 98.93 76.40
  Q 93.74 70.67 87.16 67.88
  Q 82.97 66.11 79.14 64.58
  Q 72.62 61.98 65.40 62.24
  Q 63.85 61.80 63.59 61.88
  Q 60.71 62.78 63.70 63.21
  Q 65.06 63.41 67.51 63.57
  Z
  M 27.91 79.34
  Q 29.06 77.50 30.79 76.24
  Q 35.83 72.57 41.48 68.07
  Q 44.46 65.70 40.80 66.75
  C 28.95 70.17 20.27 77.60 13.59 87.85
  C 12.48 89.55 10.02 93.83 10.48 95.74
  A 0.49 0.49 0.0 0 0 11.22 96.04
  Q 14.77 93.72 17.89 91.32
  C 27.43 83.97 36.96 76.83 45.21 68.25
  Q 45.36 68.10 45.22 67.94
  L 44.90 67.59
  Q 44.79 67.47 44.66 67.57
  Q 39.36 71.58 33.95 75.66
  Q 31.84 77.24 29.94 79.41
  Q 29.31 80.13 28.31 80.09
  Q 27.47 80.06 27.91 79.34
  Z
  M 41.86 83.99
  Q 37.54 94.45 36.20 105.57
  Q 35.99 107.36 36.57 109.06
  A 1.12 1.12 0.0 0 0 38.50 109.41
  C 39.99 107.62 40.10 105.48 40.79 103.36
  Q 43.38 95.31 46.18 87.13
  C 46.50 86.20 46.49 85.28 46.85 84.38
  Q 49.71 77.33 50.44 70.94
  Q 50.72 68.46 49.15 70.39
  C 45.64 74.69 44.23 78.24 41.86 83.99
  Z
  M 68.83 90.20
  Q 65.10 83.64 61.40 78.31
  Q 59.31 75.29 56.19 73.25
  A 0.48 0.47 12.1 0 0 55.46 73.72
  C 57.52 86.75 63.24 99.95 74.86 106.93
  Q 75.21 107.14 75.61 107.10
  A 0.42 0.42 0.0 0 0 75.95 106.49
  Q 73.31 101.30 71.39 95.93
  Q 70.21 92.63 68.83 90.20
  Z"
/>
<path fill="#cc9f9f" d="
  M 67.84 16.91
  Q 67.33 19.14 68.07 20.60
  L 62.75 29.34
  Q 62.16 30.31 62.03 29.18
  L 61.07 20.91
  Q 60.99 20.18 61.39 19.57
  L 64.91 14.13
  A 0.98 0.97 42.8 0 1 66.50 14.07
  Q 67.59 15.50 67.84 16.91
  Z"
/>
<path fill="#fffcfe" d="
  M 48.51 16.59
  L 43.71 16.80
  C 44.89 13.78 46.78 14.00 48.51 16.59
  Z"
/>
<path fill="#fffcfe" d="
  M 57.54 19.98
  Q 55.59 23.34 52.88 23.41
  L 56.00 15.97
  A 0.29 0.29 0.0 0 1 56.53 15.95
  Q 57.51 17.75 57.54 19.98
  Z"
/>
<path fill="#cc9f9f" d="
  M 48.51 16.59
  L 50.74 19.66
  Q 51.06 20.10 50.89 20.63
  Q 48.63 27.49 47.32 34.14
  Q 47.07 35.37 46.48 34.26
  L 40.60 23.27
  Q 40.37 22.84 40.61 22.41
  L 43.71 16.80
  L 48.51 16.59
  Z"
/>
<path fill="#fffcfe" d="
  M 75.57 24.58
  Q 71.06 26.06 69.58 23.04
  L 74.27 16.70
  A 0.68 0.68 0.0 0 1 75.48 16.94
  Q 76.37 20.49 75.57 24.58
  Z"
/>
<path fill="#fffcfe" d="
  M 67.84 16.91
  Q 68.35 17.83 69.44 18.24
  Q 69.92 18.42 69.59 18.81
  L 68.07 20.60
  Q 67.33 19.14 67.84 16.91
  Z"
/>
<path fill="#cc9f9f" d="
  M 57.54 19.98
  C 59.49 29.06 60.73 39.07 59.22 48.26
  C 58.50 52.64 58.34 57.54 56.34 61.49
  Q 56.13 61.91 55.67 62.03
  Q 52.43 62.86 51.36 59.29
  Q 47.92 47.86 49.43 37.75
  Q 50.38 31.42 52.88 23.41
  Q 55.59 23.34 57.54 19.98
  Z"
/>
<path fill="#fffcfe" d="
  M 37.34 24.74
  L 36.27 29.40
  Q 36.16 29.89 35.65 29.87
  L 32.21 29.73
  L 34.15 21.84
  Q 34.28 21.29 34.75 21.62
  Q 36.30 22.75 37.34 24.74
  Z"
/>
<path fill="#cc9f9f" d="
  M 69.58 23.04
  Q 71.06 26.06 75.57 24.58
  Q 73.69 34.87 70.11 43.13
  Q 69.13 45.38 66.93 48.25
  Q 64.19 51.82 62.35 56.31
  Q 61.85 57.52 60.93 58.59
  Q 59.91 59.76 60.34 58.27
  Q 62.73 49.84 62.80 40.44
  Q 62.83 36.52 63.93 33.28
  Q 65.84 27.64 69.58 23.04
  Z"
/>
<path fill="#cc9f9f" d="
  M 37.34 24.74
  Q 42.53 31.33 45.08 39.18
  Q 46.25 42.80 46.28 46.58
  Q 46.34 53.69 47.98 59.74
  Q 48.21 60.61 47.50 60.06
  Q 46.30 59.15 45.32 57.93
  C 38.60 49.58 32.40 40.72 32.21 29.73
  L 35.65 29.87
  Q 36.16 29.89 36.27 29.40
  L 37.34 24.74
  Z"
/>
<path fill="#cc9f9f" d="
  M 78.64 26.45
  Q 78.93 26.75 79.34 26.88
  Q 79.16 27.57 78.72 27.89
  Q 78.19 28.27 78.14 27.62
  Q 78.09 26.97 78.64 26.45
  Z"
/>
<path fill="#fffcfe" d="
  M 74.08 53.17
  Q 73.32 52.59 74.59 51.20
  C 77.20 48.32 78.63 43.90 79.78 39.75
  Q 81.33 34.19 80.40 29.05
  L 81.54 27.85
  A 0.41 0.41 0.0 0 1 82.25 28.08
  Q 84.10 42.46 74.08 53.17
  Z"
/>
<path fill="#cc9f9f" d="
  M 35.44 55.87
  Q 34.22 53.77 30.73 50.02
  Q 26.50 45.48 24.71 36.87
  Q 24.26 33.58 25.12 29.72
  Q 25.46 28.19 27.16 28.09
  A 2.04 2.04 0.0 0 1 29.32 30.14
  Q 29.24 38.97 34.25 47.36
  Q 37.96 53.57 42.25 59.05
  Q 42.82 59.77 41.92 59.55
  Q 38.07 58.60 35.44 55.87
  Z"
/>
<path fill="#cc9f9f" d="
  M 80.40 29.05
  Q 81.33 34.19 79.78 39.75
  C 78.63 43.90 77.20 48.32 74.59 51.20
  Q 73.32 52.59 74.08 53.17
  Q 70.19 57.38 63.43 60.39
  Q 61.44 61.28 62.96 59.72
  C 63.62 59.05 64.33 58.41 64.67 57.51
  Q 66.55 52.55 70.23 47.58
  Q 73.60 43.02 75.10 37.25
  C 75.91 34.13 78.20 31.42 80.40 29.05
  Z"
/>
<path fill="#fffcfe" d="
  M 24.71 36.87
  Q 26.50 45.48 30.73 50.02
  Q 34.22 53.77 35.44 55.87
  Q 31.99 53.64 28.89 49.86
  Q 24.10 44.01 24.71 36.87
  Z"
/>
<path fill="#cc9f9f" d="
  M 65.40 62.24
  L 67.51 63.57
  Q 65.06 63.41 63.70 63.21
  Q 60.71 62.78 63.59 61.88
  Q 63.85 61.80 65.40 62.24
  Z"
/>
</svg>
