<?xml version="1.0" standalone="no"?>
<!DOCTYPE svg PUBLIC "-//W3C//DTD SVG 20010904//EN"
 "http://www.w3.org/TR/2001/REC-SVG-20010904/DTD/svg10.dtd">
<svg version="1.0" xmlns="http://www.w3.org/2000/svg"
 width="240.000000pt" height="240.000000pt" viewBox="0 0 240.000000 240.000000"
 preserveAspectRatio="xMidYMid meet">

<g transform="translate(0.000000,240.000000) scale(0.100000,-0.100000)"
fill="#000000" stroke="none">
<path d="M1075 2394 c-232 -34 -404 -100 -570 -219 -249 -177 -416 -436 -482
-745 -24 -117 -24 -343 0 -460 104 -487 460 -843 947 -947 117 -24 343 -24
460 0 487 104 843 460 947 947 12 60 18 128 18 230 0 102 -6 170 -18 230 -103
485 -462 845 -942 945 -78 16 -299 28 -360 19z m771 -659 c8 -20 -214 -1076
-232 -1103 -36 -54 -55 -47 -253 98 l-164 119 -97 -89 c-104 -97 -138 -111
-161 -68 -7 12 -40 106 -74 207 -71 214 -37 181 -263 251 -112 35 -135 45
-144 66 -10 21 -8 28 8 44 15 14 1207 468 1314 500 27 8 58 -4 66 -25z"/>
<path d="M1225 1340 c-187 -120 -339 -225 -339 -232 1 -7 21 -78 45 -158 48
-158 48 -158 64 -10 l7 65 299 269 c165 147 299 272 299 277 0 25 -63 -10
-375 -211z"/>
</g>
</svg>
