<?xml version="1.0" standalone="no"?>
<!DOCTYPE svg PUBLIC "-//W3C//DTD SVG 20010904//EN"
 "http://www.w3.org/TR/2001/REC-SVG-20010904/DTD/svg10.dtd">
<svg version="1.0" xmlns="http://www.w3.org/2000/svg"
 width="240.000000pt" height="240.000000pt" viewBox="0 0 240.000000 240.000000"
 preserveAspectRatio="xMidYMid meet">

<g transform="translate(0.000000,240.000000) scale(0.100000,-0.100000)"
fill="#000000" stroke="none">
<path d="M996 2384 c-247 -45 -454 -151 -634 -328 -235 -229 -362 -529 -362
-856 0 -327 127 -627 362 -856 231 -226 519 -344 838 -344 319 0 607 118 838
344 235 229 362 529 362 856 0 327 -127 627 -362 856 -234 229 -522 346 -847
343 -64 0 -152 -7 -195 -15z m372 -505 c26 -6 90 -31 142 -56 80 -39 107 -59
180 -132 139 -140 200 -286 200 -486 0 -120 -18 -202 -66 -300 -68 -139 -183
-255 -319 -320 -104 -50 -184 -67 -305 -67 -112 1 -189 17 -277 57 l-52 24
-181 -48 c-99 -26 -180 -45 -180 -42 0 3 21 84 46 178 l47 173 -32 70 c-182
395 69 871 504 956 76 15 214 12 293 -7z"/>
<path d="M1132 1779 c-231 -29 -421 -194 -488 -424 -20 -70 -23 -218 -5 -285
7 -25 29 -80 48 -123 l36 -77 -26 -99 c-15 -55 -27 -102 -27 -104 0 -3 48 8
107 24 l106 29 61 -30 c137 -67 309 -78 446 -31 231 80 390 303 390 546 0 158
-55 290 -170 406 -129 131 -298 191 -478 168z m-78 -346 l37 -87 -32 -44 -32
-45 19 -35 c29 -54 115 -134 177 -165 31 -15 60 -27 66 -27 5 0 27 21 50 47
l40 47 85 -38 c84 -38 86 -39 86 -73 0 -49 -22 -85 -70 -112 -97 -54 -281 0
-419 126 -137 123 -222 274 -206 361 16 86 57 132 119 132 l43 0 37 -87z"/>
</g>
</svg>
