<?xml version="1.0" standalone="no"?>
<!DOCTYPE svg PUBLIC "-//W3C//DTD SVG 20010904//EN"
 "http://www.w3.org/TR/2001/REC-SVG-20010904/DTD/svg10.dtd">
<svg version="1.0" xmlns="http://www.w3.org/2000/svg"
 width="240.000000pt" height="240.000000pt" viewBox="0 0 240.000000 240.000000"
 preserveAspectRatio="xMidYMid meet">

<g transform="translate(0.000000,240.000000) scale(0.100000,-0.100000)"
fill="#000000" stroke="none">
<path d="M996 2384 c-247 -45 -454 -151 -634 -328 -235 -229 -362 -529 -362
-856 0 -327 127 -627 362 -856 231 -226 519 -344 838 -344 319 0 607 118 838
344 235 229 362 529 362 856 0 327 -127 627 -362 856 -234 229 -522 346 -847
343 -64 0 -152 -7 -195 -15z m519 -494 c233 -22 352 -142 375 -376 12 -128 12
-500 0 -628 -17 -170 -77 -269 -203 -331 -59 -29 -90 -37 -172 -45 -129 -12
-501 -12 -630 0 -233 22 -352 142 -375 376 -12 127 -12 500 0 629 22 226 145
353 362 374 119 12 525 12 643 1z"/>
<path d="M910 1771 c-136 -12 -211 -57 -253 -150 -28 -65 -40 -245 -34 -521 6
-248 15 -301 58 -364 28 -42 74 -73 136 -93 71 -24 695 -24 766 0 93 30 144
81 174 174 24 71 24 695 0 766 -31 94 -82 145 -174 173 -56 18 -528 28 -673
15z m734 -163 c17 -39 9 -74 -22 -98 -35 -28 -69 -25 -103 9 -34 35 -37 68 -9
104 37 46 112 38 134 -15z m-363 -62 c186 -43 305 -225 269 -408 -54 -282
-384 -391 -594 -198 -54 50 -91 118 -106 198 -36 181 83 364 264 408 67 16
100 16 167 0z"/>
<path d="M1138 1426 c-205 -56 -235 -337 -45 -435 135 -69 304 10 336 159 37
171 -122 322 -291 276z"/>
</g>
</svg>
