<?xml version="1.0" standalone="no"?>
<!DOCTYPE svg PUBLIC "-//W3C//DTD SVG 20010904//EN"
 "http://www.w3.org/TR/2001/REC-SVG-20010904/DTD/svg10.dtd">
<svg version="1.0" xmlns="http://www.w3.org/2000/svg"
 width="240.000000pt" height="240.000000pt" viewBox="0 0 240.000000 240.000000"
 preserveAspectRatio="xMidYMid meet">

<g transform="translate(0.000000,240.000000) scale(0.100000,-0.100000)"
fill="#000000" stroke="none">
<path d="M546 2393 c-37 -10 -95 -55 -118 -92 l-23 -36 0 -1065 0 -1065 27
-38 c14 -22 43 -51 65 -65 l38 -27 665 0 665 0 38 27 c22 14 51 43 65 65 l27
38 0 1065 0 1065 -27 38 c-14 22 -43 51 -65 65 l-38 27 -650 1 c-357 1 -659 0
-669 -3z m1236 -210 c17 -15 18 -59 18 -981 0 -884 -1 -967 -17 -984 -15 -17
-46 -18 -581 -18 -512 0 -567 2 -584 17 -17 15 -18 59 -18 981 0 884 1 967 17
984 15 17 46 18 581 18 512 0 567 -2 584 -17z"/>
<path d="M1017 2082 c-22 -24 -21 -45 1 -65 16 -14 44 -17 184 -17 147 0 167
2 181 18 22 24 21 45 -1 65 -16 14 -44 17 -184 17 -147 0 -167 -2 -181 -18z"/>
<path d="M700 1250 l0 -650 500 0 500 0 0 650 0 650 -500 0 -500 0 0 -650z"/>
<path d="M1151 486 c-87 -48 -50 -186 49 -186 51 0 100 49 100 99 0 75 -83
124 -149 87z"/>
</g>
</svg>
